<svg xmlns="http://www.w3.org/2000/svg" viewBox="0 0 448 512"><!--!Font Awesome Free 6.5.1 by @fontawesome - https://fontawesome.com License - https://fontawesome.com/license/free Copyright 2024 Fonticons, Inc.--><path fill="#ffffff" d="M4.7 427.3L104 328l-32.9-31C56 281.9 66.7 256 88 256h112C213.3 256 224 266.7 224 280v112c0 21.4-25.8 32.1-40.9 17L152 376l-99.3 99.3c-6.2 6.2-16.4 6.2-22.6 0L4.7 449.9c-6.2-6.2-6.2-16.4 0-22.6zM443.3 84.7L344 184l32.9 31c15.1 15.1 4.4 41-17 41h-112C234.7 256 224 245.3 224 232V120c0-21.4 25.8-32.1 40.9-17L296 136l99.3-99.3c6.2-6.2 16.4-6.2 22.6 0l25.4 25.4c6.2 6.2 6.2 16.4 0 22.6z"/></svg>